<?xml version="1.0" encoding="UTF-8"?>
<svg id="logosandtypes_com" data-name="logosandtypes com" xmlns="http://www.w3.org/2000/svg" viewBox="0 0 150 150">
  <defs>
    <style>
      .cls-1 {
        fill: #3c4196;
      }

      .cls-2 {
        fill: none;
      }
    </style>
  </defs>
  <path class="cls-2" d="M0,0H150V150H0V0Z"/>
  <path class="cls-1" d="M120.49,109.39c-3.36-.46-5.92,1.29-9.5,3.73-25.98,19.56-64.96,3.92-71.12-29.54-5.45-25.13,14.33-56.26,46.84-55.19,9.78,.39,19.02,3.92,26.74,10.21,4.05,3.26,9.87,2.7,13.25-1.27,11.42-16.46-25.78-27.25-34.42-28.17C33.36,2.18-3.19,72.3,34.77,117.74c22.15,27.93,64.5,31.4,90.85,8.41,6.41-4.92,2.86-16.27-5.13-16.76Z"/>
  <path class="cls-1" d="M112.71,62.67c-2.56,.49-4.78,1.96-6.25,4.12-3.08,4.56-8.2,7.28-13.69,7.28s-10.6-2.72-13.69-7.28c-1.79-2.69-4.89-4.31-8.12-4.3-7.68-.1-12.49,8.93-8.08,15.26,13.81,21.02,45.96,21.02,59.76,0,4.87-7.11-1.5-16.78-9.95-15.08Z"/>
</svg>