<?xml version="1.0" encoding="UTF-8"?>
<svg xmlns="http://www.w3.org/2000/svg" version="1.1" viewBox="0 0 1034.6 621.39">
  <defs>
    <style>
      .st0 {
        fill: #000;
      }

      .st1 {
        display: none;
      }

      .st2 {
        fill: #000;
        font-family: LiberationSansNarrow, 'Liberation Sans Narrow';
        font-size: 85.5px;
        letter-spacing: 0em;
      }
    </style>
  </defs>
  <g id="Unterzeile" class="st1">
    <text class="st2" transform="translate(11.83 690.89)"><tspan x="0" y="0">Intelligent | energy | orchestration</tspan></text>
  </g>
  <g id="Zeichen">
    <path class="st0" d="M424.05,10.39l110.19,49.22h261.96s21.98-1.2,24.6,15.94l16.8,91.26h50.81V10.39h-464.36Z"/>
    <path class="st0" d="M423.46,609.49l110.66-52.68,262.68.12s24.1,2.72,24.6-15.94l16.8-91.26h50.81v159.77h-465.55Z"/>
    <polygon class="st0" points="534.12 68.84 423.46 15.81 423.46 76.21 768.66 308.73 423.46 541.24 423.46 601.64 533.25 549.03 649.55 308.78 534.12 68.84"/>
  </g>
  <g id="Schrift">
    <g>
      <path class="st0" d="M15.63,216.9h94.98v32.41h-62.1v31.46h62.1v31.82h-62.1v45.77h62.1v32.53H15.63v-173.99Z"/>
      <path class="st0" d="M137.93,262.2h32.29v13.19c7.32-6.17,13.96-10.47,19.9-12.88,5.94-2.41,12.03-3.62,18.25-3.62,12.75,0,23.58,4.46,32.48,13.37,7.48,7.57,11.22,18.77,11.22,33.59v85.04h-31.94v-56.35c0-15.36-.69-25.56-2.07-30.6-1.38-5.04-3.78-8.88-7.2-11.52s-7.65-3.96-12.68-3.96c-6.53,0-12.13,2.19-16.81,6.56-4.68,4.37-7.93,10.42-9.74,18.14-.94,4.02-1.42,12.72-1.42,26.11v51.63h-32.29v-128.69Z"/>
      <path class="st0" d="M343.73,258.89c12.14,0,23.56,3.04,34.24,9.11,10.68,6.07,19.02,14.31,25.02,24.72,5.99,10.41,8.99,21.65,8.99,33.71s-3.02,23.5-9.05,34.06c-6.03,10.57-14.25,18.83-24.66,24.78-10.41,5.95-21.88,8.93-34.42,8.93-18.45,0-34.2-6.56-47.25-19.69-13.05-13.13-19.58-29.08-19.58-47.84,0-20.11,7.37-36.86,22.12-50.27,12.93-11.67,27.8-17.51,44.59-17.51ZM344.27,289.29c-10.03,0-18.38,3.49-25.06,10.47-6.67,6.98-10.01,15.91-10.01,26.79s3.3,20.27,9.89,27.2c6.59,6.94,14.95,10.41,25.06,10.41s18.52-3.51,25.24-10.53c6.71-7.02,10.07-16.05,10.07-27.09s-3.3-20.01-9.89-26.91c-6.6-6.9-15.03-10.35-25.3-10.35Z"/>
      <path class="st0" d="M470.41,262.2v14.19c5.83-5.83,12.14-10.21,18.92-13.13,6.78-2.92,14.04-4.38,21.76-4.38,16.8,0,31.07,6.35,42.82,19.04,11.75,12.7,17.62,28.98,17.62,48.85s-6.07,35.19-18.21,48.08c-12.14,12.89-26.54,19.34-43.17,19.34-7.41,0-14.31-1.32-20.7-3.96-6.39-2.64-12.74-6.96-19.04-12.95v60.68h-32.05v-175.76h32.05ZM504.36,288.69c-10.17,0-18.61,3.47-25.31,10.41-6.7,6.94-10.05,16.01-10.05,27.2s3.35,20.68,10.05,27.74c6.7,7.06,15.14,10.59,25.31,10.59s18.16-3.59,24.9-10.76c6.74-7.17,10.11-16.32,10.11-27.44s-3.31-20.09-9.94-27.15c-6.62-7.06-14.98-10.59-25.08-10.59Z"/>
      <path class="st0" d="M858.22,216.9h33.59l66.92,173.99h-34.42l-13.61-35.84h-71l-14.15,35.84h-34.42l67.1-173.99ZM875.22,263.03l-23.34,59.73h46.55l-23.21-59.73Z"/>
      <path class="st0" d="M981.97,216.9h32.88v173.99h-32.88v-173.99Z"/>
    </g>
  </g>
</svg>

