<svg viewBox="0 0 1718 305" xmlns="http://www.w3.org/2000/svg">
  <path d="M1589.5,223.4c-3.3-8.3-5-19.6-5-34.1s1.7-25.7,5-33.9c3.3-8.1,8.8-12.2,16.2-12.2s12.9,4.1,16.2,12.2s5,19.4,5,33.9  s-1.7,25.8-5,34.1c-3.3,8.3-8.8,12.4-16.2,12.4S1592.8,231.7,1589.5,223.4 M1647.8,287.4c12.3-5.2,22.7-12.4,31.3-21.6  c8.6-9.2,15.1-20.4,19.6-33.5c4.5-13.1,6.8-27.4,6.8-42.9s-2.3-30.1-6.8-42.9c-4.6-12.8-11.1-23.9-19.6-33.3  c-8.6-9.3-19-16.6-31.3-21.6c-12.3-5.1-26.3-7.6-42.1-7.6s-29.8,2.5-42.1,7.6c-12.3,5.1-22.7,12.3-31.3,21.6  c-8.6,9.4-15.1,20.4-19.6,33.3c-4.6,12.8-6.8,27.1-6.8,42.9s2.3,29.8,6.8,42.9c4.5,13.1,11.1,24.2,19.6,33.5s19,16.4,31.3,21.6  c12.3,5.2,26.3,7.8,42.1,7.8S1635.5,292.6,1647.8,287.4 M1365.6,189.4c0-31.3,7.5-46.9,22.4-46.9c3.7,0,6.9,0.9,9.4,2.6  c2.5,1.7,4.5,3.7,5.8,5.8v77.4c-1.3,2.1-3.3,4.1-5.8,5.8c-2.5,1.7-5.7,2.6-9.4,2.6C1373.1,236.7,1365.6,220.9,1365.6,189.4  M1403.3,290.4h78.6V14.6h-78.6v130.3c-1.3-8-3.2-15.7-5.6-23c-2.4-7.3-5.6-13.8-9.6-19.4s-9-10.1-14.8-13.4c-5.9-3.3-13-5-21.2-5  c-10.4,0-19.6,2.5-27.7,7.6c-8,5.1-14.8,12.3-20.2,21.6c-5.5,9.4-9.7,20.4-12.6,33.3c-2.9,12.8-4.4,27.1-4.4,42.9s1.5,30.1,4.4,43.1  c2.9,13,7.2,24.1,12.6,33.5c5.5,9.4,12.2,16.6,20.2,21.6s17.2,7.6,27.7,7.6c8.3,0,15.4-1.7,21.2-5s10.8-7.8,14.8-13.4  s7.2-12.1,9.6-19.4c2.4-7.4,4.3-15,5.6-23L1403.3,290.4L1403.3,290.4z M1159.2,241.5c-3.2-2.9-4.8-6.8-4.8-11.6  c0-5.3,1.4-9.3,4.2-11.8c2.8-2.5,6.9-5.1,12.2-7.8l4.4-1.6c2.9-1.3,5.2-2.5,6.8-3.4c1.6-0.9,2.9-1.9,4-3v39.7  c-1.6,1.1-3.6,2-5.8,2.8c-2.3,0.8-5,1.2-8.2,1.2C1166.7,245.9,1162.4,244.4,1159.2,241.5 M1166.6,282.1c8.4-8.7,14.9-19.7,19.4-33.1  v41.3h78.6V160.1c0-13.1-2.3-24.4-7-34.1c-4.7-9.6-11.3-17.5-19.8-23.7c-8.6-6.1-18.9-10.8-31.1-13.8c-12.2-3.1-25.7-4.6-40.7-4.6  c-10.2,0-19.5,0.8-28.1,2.4c-8.6,1.6-16.2,3.6-23.1,6c-6.8,2.4-12.6,5-17.4,7.8c-4.8,2.8-8.7,5.3-11.6,7.4v52.9  c6.1-4.8,14.5-9.1,25.1-13c10.6-3.9,23.4-5.8,38.7-5.8c14.2,0,23.8,1.9,28.9,5.6c5.1,3.7,7.6,8,7.6,12.8c0,4-1.2,7.1-3.6,9.4  c-2.4,2.3-7.5,4.2-15.2,5.8l-25.2,6c-10.4,2.4-19.6,5.2-27.7,8.4c-8,3.2-14.7,7.2-20,12c-5.3,4.8-9.4,10.6-12.2,17.2  c-2.8,6.7-4.2,14.6-4.2,23.6c0,16.6,4.8,29.5,14.4,38.7s22.4,13.8,38.5,13.8S1158.2,290.8,1166.6,282.1 M1043,290.2  c8.3-2.3,13.6-4.1,16-5.4v-54.5c-1.9,0.5-4.8,1.2-8.8,2c-4,0.8-9,1.2-14.8,1.2c-15.8,0-27.9-4-36.5-12c-8.6-8-12.8-18.7-12.8-32.1  s4.3-23.6,12.8-31.7c8.5-8,20.7-12,36.5-12c5.9,0,10.8,0.3,14.8,1c4,0.7,6.9,1.4,8.8,2.2V94.4c-2.4-1.3-7.8-3.2-16.2-5.6  c-8.4-2.4-19.4-3.6-33.1-3.6c-16.3,0-30.8,2.7-43.5,8c-12.7,5.3-23.4,12.6-32.1,21.8c-8.7,9.2-15.3,20.2-19.8,32.9  c-4.5,12.7-6.8,26.5-6.8,41.5s2.3,29.2,6.8,41.9c4.5,12.7,11.2,23.6,20,32.9c8.8,9.2,19.6,16.4,32.5,21.6  c12.8,5.2,27.4,7.8,43.7,7.8C1023.9,293.6,1034.7,292.4,1043,290.2 M758.4,290.4H837V168.9c4.5-3.7,9.7-6.6,15.4-8.4  c5.7-1.9,13.3-2.8,22.6-2.8c5.3,0,9.8,0.2,13.4,0.6c3.6,0.4,6.2,0.9,7.8,1.4V88c-1.3-0.5-3.3-1.1-5.8-1.6c-2.5-0.5-6-0.8-10.2-0.8  c-11,0-18.8,3.6-23.5,10.6c-4.7,7.1-8.8,18.1-12.2,33.1l-7.6,34.5V88.8h-78.6L758.4,290.4L758.4,290.4z M650.2,290.4h78.6V88.8  h-78.6V290.4L650.2,290.4z M650.2,70.3h78.6V14.6h-78.6V70.3L650.2,70.3z M516.8,241.5c-3.2-2.9-4.8-6.8-4.8-11.6  c0-5.3,1.4-9.3,4.2-11.8c2.8-2.5,6.9-5.1,12.2-7.8l4.4-1.6c2.9-1.3,5.2-2.5,6.8-3.4c1.6-0.9,2.9-1.9,4-3v39.7  c-1.6,1.1-3.5,2-5.8,2.8c-2.3,0.8-5,1.2-8.2,1.2C524.2,245.9,520,244.4,516.8,241.5 M524.2,282.2c8.4-8.7,14.9-19.7,19.4-33.1v41.3  h78.6V160.1c0-13.1-2.3-24.4-7-34.1s-11.3-17.5-19.8-23.7c-8.6-6.1-18.9-10.8-31.1-13.8c-12.2-3.1-25.7-4.6-40.7-4.6  c-10.2,0-19.5,0.8-28,2.4c-8.6,1.6-16.2,3.6-23,6c-6.8,2.4-12.6,5-17.4,7.8c-4.8,2.8-8.7,5.3-11.6,7.4v52.9c6.1-4.8,14.5-9.1,25-13  c10.5-3.9,23.5-5.8,38.7-5.8c14.2,0,23.8,1.9,28.9,5.6c5.1,3.7,7.6,8,7.6,12.8c0,4-1.2,7.1-3.6,9.4s-7.5,4.2-15.2,5.8l-25.2,6  c-10.4,2.4-19.6,5.2-27.6,8.4c-8,3.2-14.7,7.2-20,12c-5.4,4.8-9.4,10.6-12.2,17.2c-2.8,6.7-4.2,14.6-4.2,23.6  c0,16.6,4.8,29.5,14.4,38.7s22.4,13.8,38.5,13.8S515.8,290.8,524.2,282.2 M394.6,290.4V144.9H425V88.8h-30.5v-1.6  c0-14.7,7.6-22,22.8-22c3.7,0,6.7,0.1,8.8,0.4c2.1,0.3,4,0.7,5.6,1.2V14.6c-2.4-0.8-7.2-1.8-14.4-3s-15.5-1.8-24.9-1.8  c-51,0-76.6,25.6-76.6,76.9v2h-23.2v56.1H316v145.5L394.6,290.4L394.6,290.4z"/>
  <path d="M230.8,290.1l-0.1-58l-58,0.1l0,13l37.5,0l-6.4,6.4c-16.1,15.8-36.1,25-56.5,25.9c-20.7,0.9-40.4-7-55.4-22.3  c-8.2-8.3-14.4-18.1-18.4-28.7c4.6,0.4,9.3,0.4,14.1,0.1c23.9-1.6,47.3-12.1,64.3-28.8c4.8-4.8,16.6-17.6,21.7-33.7  c5.2-16.4,1.8-31.3-9.6-42.9c-9.3-9.5-20.2-14.3-32.3-14.3c-0.1,0-0.1,0-0.2,0c-25.1,0.1-46.4,21.3-47.9,22.8  c-18.1,17.9-28.2,41.7-28.4,67.1c0,4.3,0.2,8.6,0.7,12.8c-7.5-2.8-14.2-7-19.7-12.6c-26.2-26.6-22.2-67.4,9.6-99.2  C65.5,78,90.2,53.8,103.2,41.2l0.1,36.5l13,0l-0.2-58l-58,0.2l0,13l35.2-0.1C80.1,45.6,55.9,69.2,36.7,88.4  C18.2,106.9,7.6,128.2,6.2,150c-1.4,21,6,40.9,20.9,56c8.4,8.6,19.4,14.7,31.9,18c4.3,15,12.4,28.9,23.7,40.3  c16.8,17,38.5,26.3,61.5,26.3c1.3,0,2.5,0,3.8-0.1c23.6-1,46.7-11.6,65.1-29.7l4.8-4.8l0,34.2L230.8,290.1z M68.3,196.7  c0.2-22,8.9-42.6,24.6-58l0.1-0.1c0.2-0.2,18.7-18.9,38.7-18.9c0,0,0,0,0.1,0c8.6,0,16.1,3.4,23,10.4c22.6,23-8.4,54.7-12,58.3 c-20,19.6-48.6,28.2-73,24.5C68.7,207.6,68.2,202.2,68.3,196.7z"/>
</svg>

