<?xml version="1.0" encoding="UTF-8"?>
<svg version="1.1" xmlns="http://www.w3.org/2000/svg" width="1128" height="464">
<path d="M0 0 C1.30500458 -0.00960754 2.61000916 -0.01921509 3.95455933 -0.02911377 C5.38132553 -0.03396164 6.80809377 -0.0382405 8.23486328 -0.04199219 C9.69833376 -0.04774584 11.16180421 -0.05350355 12.62527466 -0.05926514 C15.69354605 -0.06976685 18.7617913 -0.07561499 21.83007812 -0.07910156 C25.75652433 -0.08458571 29.68262366 -0.10861519 33.60896111 -0.13707352 C36.63218182 -0.15572141 39.65531932 -0.16090662 42.67859268 -0.16243744 C44.12584454 -0.16545947 45.5730951 -0.17347287 47.02029037 -0.18662262 C49.04731099 -0.20372673 51.07447503 -0.19995175 53.1015625 -0.1953125 C54.25389374 -0.19895813 55.40622498 -0.20260376 56.59347534 -0.20635986 C60.3261839 0.23804447 63.00308258 1.48403961 65.68017578 4.16113281 C65.93219462 7.77919152 65.86540113 11.41033361 65.86767578 15.03613281 C65.87992187 16.05578125 65.89216797 17.07542969 65.90478516 18.12597656 C65.90671875 19.104375 65.90865234 20.08277344 65.91064453 21.09082031 C65.91475342 21.9904248 65.9188623 22.8900293 65.9230957 23.81689453 C65.68017578 26.16113281 65.68017578 26.16113281 63.68017578 29.16113281 C59.88141307 30.42738705 56.25595652 30.39411829 52.29345703 30.47753906 C51.47644821 30.49832016 50.65943939 30.51910126 49.81767273 30.54051208 C47.20942544 30.60586361 44.60107803 30.66482555 41.99267578 30.72363281 C40.22378524 30.76683173 38.45490481 30.81044647 36.68603516 30.85449219 C32.35085115 30.96153025 28.01556649 31.06283825 23.68017578 31.16113281 C22.2197635 34.08195737 22.56088782 36.6441465 22.56665039 39.90576172 C22.56650436 40.59855728 22.56635834 41.29135284 22.56620789 42.00514221 C22.5669056 44.29935822 22.57469137 46.59349345 22.58251953 48.88769531 C22.58438421 50.47667395 22.58580788 52.06565315 22.58680725 53.65463257 C22.59062847 57.84022606 22.6004554 62.02578494 22.61151123 66.21136475 C22.62173384 70.48107434 22.6263067 74.75078951 22.63134766 79.02050781 C22.642078 87.40073204 22.6591497 95.78092812 22.68017578 104.16113281 C24.03661304 104.15698474 24.03661304 104.15698474 25.42045307 104.15275288 C47.4027451 104.08655982 69.38502 104.0368848 91.36739063 104.0056963 C101.99781175 103.99021369 112.62816644 103.9690976 123.25854492 103.93481445 C132.52173378 103.90495471 141.78487454 103.88556795 151.04811019 103.87886733 C155.95496841 103.87494925 160.86168899 103.8657124 165.76850319 103.84394264 C170.38378647 103.82363154 174.99887496 103.81728808 179.61419868 103.82180977 C181.31097216 103.82098215 183.00775193 103.81498454 184.70448685 103.80351639 C187.01582364 103.78865606 189.32641872 103.79215508 191.63777161 103.80036926 C192.93289075 103.79760388 194.22800989 103.7948385 195.56237507 103.79198933 C198.68017578 104.16113281 198.68017578 104.16113281 200.59606457 105.53341198 C202.14016094 107.85176991 202.06852403 109.61062272 202.07861328 112.37988281 C202.08248047 113.394375 202.08634766 114.40886719 202.09033203 115.45410156 C202.07292969 117.04158203 202.07292969 117.04158203 202.05517578 118.66113281 C202.06677734 119.71945313 202.07837891 120.77777344 202.09033203 121.86816406 C202.08646484 122.88265625 202.08259766 123.89714844 202.07861328 124.94238281 C202.07522949 125.87115234 202.0718457 126.79992187 202.06835938 127.75683594 C201.68017578 130.16113281 201.68017578 130.16113281 200.59606457 131.7864809 C197.67571203 133.88183645 195.20061751 133.54718106 191.63777161 133.55986023 C190.91650312 133.56650706 190.19523463 133.57315388 189.45210952 133.58000213 C187.02904716 133.59869293 184.60647596 133.59602284 182.18334961 133.59350586 C180.44893187 133.60251933 178.71452054 133.61284553 176.9801178 133.62438965 C172.26555309 133.65203457 167.55110899 133.66125431 162.8364737 133.66724372 C157.9116601 133.67660794 152.98693728 133.70280968 148.06217957 133.72724915 C138.73373163 133.77097168 129.40530126 133.79948327 120.07678193 133.82257253 C109.45775713 133.8495934 98.8388234 133.89350679 88.21986353 133.93886125 C66.37334989 134.03178992 44.52680899 134.10343297 22.68017578 134.16113281 C22.6568382 150.55494894 22.63919237 166.94875971 22.62836361 183.34258842 C22.62320248 190.95414662 22.61616326 198.56569451 22.60473633 206.17724609 C22.59478391 212.80976529 22.58832102 219.44227702 22.58608729 226.07480347 C22.58478113 229.58820718 22.58170126 233.10158954 22.57444572 236.61498642 C22.5664208 240.53255368 22.56618501 244.45009985 22.56665039 248.36767578 C22.56125748 250.12417953 22.56125748 250.12417953 22.55575562 251.91616821 C22.55713028 252.97910095 22.55850494 254.04203369 22.55992126 255.13717651 C22.55853858 256.52816213 22.55853858 256.52816213 22.55712795 257.94724846 C22.53558945 260.20270076 22.53558945 260.20270076 23.68017578 262.16113281 C24.43772659 262.16477844 25.1952774 262.16842407 25.9757843 262.17218018 C33.11246844 262.21003542 40.24862912 262.26685874 47.38497639 262.34503555 C51.05395112 262.38455789 54.72268416 262.41672255 58.3918457 262.43212891 C61.93236423 262.4472649 65.47221851 262.48165394 69.01244164 262.52944183 C71.02148231 262.55151636 73.03071015 262.55360918 75.03987122 262.55548096 C76.26091049 262.57519958 77.48194977 262.59491821 78.73999023 262.61523438 C79.81698685 262.62411682 80.89398346 262.63299927 82.00361633 262.64215088 C84.68017578 263.16113281 84.68017578 263.16113281 86.5271759 265.050354 C87.89260902 267.55003101 88.06708835 269.16645782 88.07861328 272.00488281 C88.08248047 272.92140625 88.08634766 273.83792969 88.09033203 274.78222656 C88.07873047 275.73226563 88.06712891 276.68230469 88.05517578 277.66113281 C88.06677734 278.61117188 88.07837891 279.56121094 88.09033203 280.54003906 C88.08646484 281.4565625 88.08259766 282.37308594 88.07861328 283.31738281 C88.07522949 284.15076172 88.0718457 284.98414063 88.06835938 285.84277344 C87.55449554 288.91173632 86.97866934 290.01935984 84.68017578 292.16113281 C81.62434293 292.5681018 78.92525365 292.71799755 75.8659668 292.69458008 C74.96487183 292.70319565 74.06377686 292.71181122 73.13537598 292.72068787 C70.15132062 292.74342419 67.1681986 292.73659462 64.18408203 292.72753906 C62.11286641 292.73277151 60.04165318 292.73904659 57.97044373 292.74632263 C53.62674763 292.75674121 49.28337882 292.75214478 44.93969727 292.73754883 C39.3695317 292.72036512 33.80039801 292.74384392 28.23034763 292.77903843 C23.95209398 292.80098621 19.67408817 292.79957717 15.39579582 292.79127312 C13.34205939 292.79045204 11.28830504 292.79734515 9.23462105 292.81204414 C6.36369326 292.8294401 3.49463154 292.81498859 0.6237793 292.79223633 C-0.22674515 292.80392853 -1.07726959 292.81562073 -1.9535675 292.82766724 C-2.73724701 292.81501328 -3.52092651 292.80235931 -4.32835388 292.7893219 C-5.00658423 292.78873559 -5.68481459 292.78814928 -6.38359737 292.7875452 C-9.71826412 291.70870644 -10.60630656 290.20814956 -12.31982422 287.16113281 C-12.90869507 283.38688622 -12.85480195 279.64959546 -12.82102966 275.83627319 C-12.82933126 274.09957208 -12.82933126 274.09957208 -12.83780056 272.32778609 C-12.84905817 269.11801401 -12.84237345 265.90885736 -12.82806385 262.69911575 C-12.8169592 259.23623999 -12.82889483 255.77343332 -12.83790588 252.31056213 C-12.85184301 245.52895682 -12.84427919 238.74753763 -12.8292303 231.96594118 C-12.8123785 224.07179975 -12.81557932 216.17770479 -12.81932438 208.28355093 C-12.82520362 194.20169161 -12.81102785 180.1199217 -12.78637695 166.03808594 C-12.76244685 152.36650238 -12.75537615 138.69503824 -12.76586914 125.0234375 C-12.77727091 110.141064 -12.7792183 95.25874575 -12.76477104 80.37637293 C-12.76324517 78.79044192 -12.76172482 77.20451089 -12.76021004 75.61857986 C-12.75945222 74.83823373 -12.75869441 74.0578876 -12.75791363 73.25389462 C-12.75316578 67.74790236 -12.75502572 62.24193473 -12.75927544 56.73594284 C-12.76419511 50.02992225 -12.75824885 43.3240147 -12.73838114 36.61802004 C-12.72849016 33.19485886 -12.72342335 29.77187003 -12.73127365 26.34869957 C-12.73719164 22.64295467 -12.72478799 18.93772361 -12.70750427 15.23202515 C-12.71351432 14.1430359 -12.71952436 13.05404666 -12.72571653 11.93205774 C-12.71727659 10.94336714 -12.70883665 9.95467654 -12.70014095 8.93602562 C-12.69911182 8.08018832 -12.69808269 7.22435101 -12.69702238 6.34257925 C-12.23125335 3.64890178 -11.47482309 2.7984582 -9.31982422 1.16113281 C-5.99961498 0.0543964 -3.49796309 0.02075543 0 0 Z " fill="#000000" transform="translate(84.31982421875,91.8388671875)"/>
<path d="M0 0 C0.75414185 -0.00287018 1.50828369 -0.00574036 2.28527832 -0.00869751 C3.87199662 -0.01072945 5.45874047 -0.00526071 7.04541016 0.00732422 C9.4618376 0.02339154 11.87659278 0.00744714 14.29296875 -0.01171875 C15.84114949 -0.00973616 17.3893292 -0.00589216 18.9375 0 C19.65329224 -0.00607269 20.36908447 -0.01214539 21.10656738 -0.0184021 C27.36581126 0.0685267 31.24232904 1.78711127 35.78125 6.0234375 C38.67595839 9.82039266 39.35925187 13.6885068 38.96875 18.3984375 C37.67835791 23.18047879 36.03843518 25.67204703 31.90454102 28.47924805 C27.72919916 30.79854398 24.1046715 30.9801587 19.40234375 30.9296875 C18.20666527 30.93542786 18.20666527 30.93542786 16.98683167 30.94128418 C15.31192756 30.94399091 13.63698029 30.93671693 11.9621582 30.91992188 C9.40935562 30.89846361 6.85935759 30.91977796 4.30664062 30.9453125 C2.67186884 30.94266955 1.03709879 30.93754526 -0.59765625 30.9296875 C-1.35405899 30.93778442 -2.11046173 30.94588135 -2.88978577 30.95422363 C-8.0324416 30.86387944 -10.91325686 29.72168894 -15.03125 26.3984375 C-18.33378798 22.68970501 -19.76318682 18.46405914 -19.48046875 13.453125 C-18.62912275 9.55914244 -16.77214434 6.27318947 -14.03125 3.3984375 C-9.34406898 0.54401372 -5.37798766 -0.04562618 0 0 Z " fill="#000000" transform="translate(230.03125,92.6015625)"/>
<path d="M0 0 C0.68797668 -0.00335861 1.37595337 -0.00671722 2.08477783 -0.01017761 C4.36456089 -0.01969555 6.64427057 -0.02163112 8.92407227 -0.02270508 C10.50586477 -0.02591699 12.08765698 -0.02928101 13.66944885 -0.03279114 C16.98748463 -0.03878445 20.30549435 -0.04063082 23.62353516 -0.04003906 C27.87857797 -0.03993741 32.13345403 -0.05359201 36.3884573 -0.07081127 C39.65607981 -0.08192076 42.92366188 -0.0839586 46.19130135 -0.08342934 C47.76020953 -0.08461095 49.32911871 -0.08904286 50.89800835 -0.0967617 C53.09097912 -0.10654086 55.28358608 -0.10369199 57.4765625 -0.09765625 C59.34948219 -0.09979378 59.34948219 -0.09979378 61.26023865 -0.10197449 C64.30297852 0.14526367 64.30297852 0.14526367 67.30297852 2.14526367 C67.68017668 4.21648633 67.68017668 4.21648633 67.68329525 6.8311367 C67.69173519 7.82541974 67.70017513 8.81970279 67.70887083 9.84411561 C67.70286078 10.94448172 67.69685074 12.04484782 67.69065857 13.17855835 C67.69873688 14.92260686 67.69873688 14.92260686 67.70697838 16.70188868 C67.71885024 19.93920404 67.71716741 23.17619207 67.70981157 26.4135108 C67.70509875 29.90099864 67.71757302 33.38843022 67.72782898 36.87590027 C67.74506024 43.71235539 67.74584797 50.54871878 67.74061608 57.38519 C67.73658074 62.94051484 67.73801034 68.49581248 67.74336433 74.05113602 C67.74411276 74.8406881 67.74486118 75.63024018 67.74563228 76.44371808 C67.7471637 78.0475171 67.74870205 79.65131611 67.75024725 81.25511511 C67.76398823 96.3093443 67.75852366 111.36352158 67.74706203 126.4177496 C67.73713052 140.19837299 67.75006604 153.97886211 67.77399623 167.75946479 C67.79836403 181.89827657 67.80800066 196.03702576 67.8013435 210.17585814 C67.79784578 218.11815712 67.80011953 226.06035281 67.81759453 234.00263596 C67.8322877 240.76470883 67.83299009 247.52660574 67.81552362 254.28867505 C67.80698674 257.74034893 67.80492879 261.19170806 67.82017517 264.64336586 C67.83327831 268.38187885 67.82193131 272.11952682 67.80418396 275.85800171 C67.81378897 276.95390637 67.82339397 278.04981103 67.83329004 279.17892492 C67.76299677 286.33767174 67.76299677 286.33767174 65.77974892 289.8193922 C62.27473089 291.69570799 59.05164228 291.69470343 55.17344666 291.64646912 C54.34726808 291.65200351 53.5210895 291.65753791 52.6698752 291.66324002 C49.89745069 291.67686923 47.12592289 291.66186527 44.35351562 291.64697266 C42.3676668 291.65075498 40.3818206 291.6562543 38.39598083 291.66334534 C32.99938235 291.67732757 27.60310169 291.66611108 22.2065208 291.64963412 C16.56513249 291.63580434 10.92376302 291.64224126 5.28236389 291.64576721 C-4.19104142 291.64847075 -13.66432012 291.63498056 -23.13769531 291.61181641 C-34.09976504 291.58519814 -45.06162315 291.58346149 -56.02371413 291.59520477 C-66.55829652 291.60597256 -77.09280217 291.59980382 -87.62737846 291.58564949 C-92.11577602 291.57988179 -96.60411755 291.5799785 -101.09251595 291.58471489 C-106.37436306 291.58947664 -111.65597754 291.5794163 -116.93778038 291.55776024 C-118.87964722 291.55218153 -120.82153637 291.55173695 -122.76340485 291.5567131 C-125.40735508 291.5626402 -128.05058783 291.55021079 -130.69447327 291.53294373 C-131.8562301 291.54195879 -131.8562301 291.54195879 -133.04145676 291.55115598 C-138.20213257 291.48956274 -138.20213257 291.48956274 -140.67192745 289.77130222 C-143.03153421 286.0284148 -142.16315527 280.91950764 -142.13452148 276.64526367 C-142.15450195 275.58694336 -142.17448242 274.52862305 -142.19506836 273.43823242 C-142.19442383 272.42374023 -142.1937793 271.40924805 -142.19311523 270.36401367 C-142.19496826 269.43524414 -142.19682129 268.50647461 -142.19873047 267.54956055 C-141.69702148 265.14526367 -141.69702148 265.14526367 -140.09630108 263.51949501 C-136.87017021 261.67166946 -134.51908135 261.76316491 -130.80683899 261.75326538 C-130.11400651 261.74732412 -129.42117402 261.74138286 -128.70734662 261.73526156 C-126.38644009 261.71895433 -124.06606877 261.72392014 -121.74511719 261.72875977 C-120.08114 261.72138069 -118.41716825 261.71267598 -116.75320435 261.70274353 C-112.23489496 261.67940226 -107.71672291 261.67427016 -103.19836068 261.67208433 C-98.4755518 261.66642951 -93.75283282 261.64316158 -89.03007507 261.62149048 C-80.08533835 261.58295024 -71.14062732 261.55874079 -62.19582862 261.54036582 C-46.16216225 261.50696152 -30.12857257 261.44934348 -14.09499806 261.38637412 C-8.46370581 261.36482768 -2.83244036 261.34958954 2.7988838 261.33953452 C6.29300014 261.33253957 9.78709722 261.32166302 13.28120041 261.30989265 C14.90785007 261.30531714 16.53450564 261.30248312 18.16116142 261.3014698 C20.37206343 261.29990888 22.58286495 261.29235883 24.79374695 261.28329468 C26.033894 261.28073858 27.27404104 261.27818249 28.5517683 261.27554893 C31.21382035 261.45871092 31.21382035 261.45871092 32.30297852 260.14526367 C32.41126573 258.48808373 32.44983353 256.82630942 32.4611969 255.16563416 C32.47098572 254.08724777 32.48077454 253.00886139 32.49085999 251.89779663 C32.49661545 250.70449738 32.50237091 249.51119812 32.50830078 248.28173828 C32.51820038 247.03313522 32.52809998 245.78453217 32.53829956 244.49809265 C32.56455097 241.0643821 32.58638661 237.63069559 32.60630155 234.19694591 C32.62812276 230.61211147 32.65553029 227.02731998 32.68235779 223.44252014 C32.7323371 216.64979437 32.77725642 209.85704484 32.82038015 203.06427246 C32.86970786 195.33280824 32.9246425 187.60138708 32.98005974 179.86996448 C33.09396018 163.96177065 33.20078157 148.05353725 33.30297852 132.14526367 C32.56826324 132.1497049 31.83354797 132.15414612 31.0765686 132.15872192 C24.16062484 132.19875643 17.24469834 132.22922655 10.32866859 132.24888802 C6.77285453 132.25933591 3.21713602 132.27351326 -0.33862305 132.29614258 C-4.42424449 132.32198199 -8.50976517 132.33172811 -12.59545898 132.34057617 C-13.87568939 132.35089874 -15.1559198 132.36122131 -16.47494507 132.37185669 C-18.24655502 132.37208328 -18.24655502 132.37208328 -20.05395508 132.37231445 C-21.61948624 132.37897629 -21.61948624 132.37897629 -23.21664429 132.38577271 C-25.69702148 132.14526367 -25.69702148 132.14526367 -27.69702148 130.14526367 C-28.15357946 126.18477545 -28.02104191 122.19152557 -28.00952148 118.20776367 C-28.02563477 117.09723633 -28.04174805 115.98670898 -28.05834961 114.8425293 C-28.05899414 113.7784082 -28.05963867 112.71428711 -28.06030273 111.61791992 C-28.06328369 110.64089111 -28.06626465 109.6638623 -28.06933594 108.65722656 C-27.62136053 105.63478792 -27.12018026 104.95098975 -24.69702148 103.14526367 C-22.13435364 102.78450012 -22.13435364 102.78450012 -19.03222656 102.8046875 C-17.85503052 102.80505005 -16.67783447 102.8054126 -15.46496582 102.80578613 C-13.60950134 102.82880798 -13.60950134 102.82880798 -11.71655273 102.85229492 C-10.01082092 102.85682678 -10.01082092 102.85682678 -8.27062988 102.8614502 C-4.01683495 102.87716357 0.23683076 102.91904743 4.49047852 102.95776367 C13.99860352 103.01963867 23.50672852 103.08151367 33.30297852 103.14526367 C32.97297852 79.38526367 32.64297852 55.62526367 32.30297852 31.14526367 C29.17010552 29.57882718 25.81460652 29.96718867 22.37329102 29.93432617 C20.75739547 29.90625728 19.14151019 29.87759281 17.52563477 29.84838867 C14.97567026 29.80712552 12.42589717 29.77024217 9.87573242 29.74389648 C7.41618203 29.71627714 4.95750477 29.67040688 2.49829102 29.62182617 C1.73775421 29.6185733 0.97721741 29.61532043 0.19363403 29.61196899 C-2.99461344 29.53799313 -5.32492833 29.34914729 -8.14672852 27.80297852 C-11.5621967 24.15084797 -10.88056071 19.45981615 -10.88452148 14.77026367 C-10.89676758 14.01487305 -10.90901367 13.25948242 -10.92163086 12.48120117 C-10.93262743 8.28784236 -10.7703712 4.91366771 -8.69702148 1.14526367 C-5.79069814 -0.307898 -3.24641406 0.00991705 0 0 Z " fill="#000000" transform="translate(339.697021484375,92.854736328125)"/>
<path d="M0 0 C11.65327715 9.68593399 17.69044052 22.17544526 21.60546875 36.48828125 C21.97478516 37.78572266 21.97478516 37.78572266 22.3515625 39.109375 C24.66738386 49.09136362 23.60546875 59.27015947 23.60546875 69.48828125 C-9.39453125 69.48828125 -42.39453125 69.48828125 -76.39453125 69.48828125 C-72.80485339 89.69435604 -72.80485339 89.69435604 -59.58984375 103.734375 C-50.84797738 108.68568105 -40.10334582 109.43858564 -30.39453125 107.48828125 C-23.69798904 105.59321872 -18.04479061 102.74276722 -13.39453125 97.48828125 C-12.80764126 96.10024509 -12.22708924 94.70951496 -11.65234375 93.31640625 C-10.35522461 91.19042969 -10.35522461 91.19042969 -8.39453125 89.48828125 C-3.27732562 88.45698485 1.74051312 88.73522751 6.91796875 88.98828125 C8.34039524 89.02843626 9.76293 89.06493361 11.18554688 89.09765625 C14.6611127 89.1855569 18.13260457 89.32343512 21.60546875 89.48828125 C20.30277605 102.97838789 13.30879496 112.50130798 3.60546875 121.48828125 C-10.16474263 132.65995348 -29.95814793 136.90386392 -47.39453125 135.48828125 C-66.52553918 133.24754312 -82.26337982 126.87121616 -94.84375 111.55859375 C-108.8667928 92.837655 -111.80486457 68.73391012 -108.89453125 45.96875 C-106.26214397 29.1162903 -98.75650804 10.9656679 -84.83349609 0.29150391 C-59.68698912 -17.68260697 -25.14918546 -19.40207311 0 0 Z M-67.39453125 23.48828125 C-72.83316006 30.74756691 -75.39453125 37.3512925 -75.39453125 46.48828125 C-53.28453125 46.48828125 -31.17453125 46.48828125 -8.39453125 46.48828125 C-10.63651533 35.27836084 -13.72391967 24.49653822 -23.39453125 17.48828125 C-38.36266894 9.21775093 -55.20347993 11.01261394 -67.39453125 23.48828125 Z " fill="#000000" transform="translate(739.39453125,169.51171875)"/>
<path d="M0 0 C18.48234081 -0.57124339 35.35359614 3.76472696 49.5546875 15.96484375 C62.85299464 29.00396349 69.3014033 46.81426708 70.4921875 65.15234375 C70.4921875 71.09234375 70.4921875 77.03234375 70.4921875 83.15234375 C37.4921875 83.15234375 4.4921875 83.15234375 -29.5078125 83.15234375 C-26.6304579 101.31828223 -26.6304579 101.31828223 -15.65625 115.48828125 C-6.19336207 121.61966556 4.02620544 123.42060352 15.1484375 121.53125 C22.05147221 119.58775541 27.27735237 117.08781271 32.4921875 112.15234375 C34.1421875 109.18234375 35.7921875 106.21234375 37.4921875 103.15234375 C47.7221875 103.15234375 57.9521875 103.15234375 68.4921875 103.15234375 C66.5291575 116.89355373 59.46285636 127.64965419 48.77734375 136.3671875 C32.82733697 147.86403803 11.79089264 151.36035608 -7.43530273 148.33007812 C-24.12411137 145.38904176 -39.12890965 137.57812036 -49.3125 123.69140625 C-63.07060437 103.08377352 -65.7011642 77.9470448 -61.3203125 53.83984375 C-56.52382334 34.32233255 -46.89771766 19.01390299 -29.8984375 8.015625 C-20.53726933 2.87129641 -10.59941602 0.46033099 0 0 Z M-21.26171875 38.15234375 C-25.67152023 44.16470467 -29.5078125 52.58448738 -29.5078125 60.15234375 C-7.3978125 60.15234375 14.7121875 60.15234375 37.4921875 60.15234375 C36.381054 49.04100874 34.32879171 41.29819725 26.0546875 33.58984375 C11.28358928 21.62401292 -8.88617569 24.04036592 -21.26171875 38.15234375 Z " fill="#000000" transform="translate(841.5078125,155.84765625)"/>
<path d="M0 0 C5.0401583 3.9625298 8.75398773 9.13664273 12.00390625 14.62890625 C12.00390625 15.28890625 12.00390625 15.94890625 12.00390625 16.62890625 C12.66390625 16.62890625 13.32390625 16.62890625 14.00390625 16.62890625 C14.00390625 8.70890625 14.00390625 0.78890625 14.00390625 -7.37109375 C24.89390625 -7.37109375 35.78390625 -7.37109375 47.00390625 -7.37109375 C47.07173268 11.60535099 47.12695163 30.58169696 47.15934277 49.55823231 C47.17478498 58.37016464 47.19582369 67.18201608 47.23022461 75.99389648 C47.26020822 83.67796103 47.27950047 91.36196697 47.28617173 99.0460884 C47.29006887 103.1114911 47.29917197 107.17672619 47.32109642 111.24207497 C47.3416035 115.076015 47.34771164 118.90971989 47.34322929 122.74370956 C47.34404819 124.14363957 47.34992868 125.54357823 47.36152267 126.94346046 C47.48174062 142.2204764 44.23162325 156.02315231 33.48046875 167.3984375 C16.66478642 182.54316086 -4.87475084 186.5505173 -26.94726562 185.73828125 C-43.8793168 184.83437766 -62.66836181 179.95663819 -74.99609375 167.62890625 C-81.1063779 160.48219415 -84.74068812 153.96822981 -85.99609375 144.62890625 C-81.36977172 144.48038258 -76.74484133 144.37161606 -72.11669922 144.29931641 C-70.54321112 144.26917544 -68.96989063 144.22825331 -67.39697266 144.17626953 C-65.13271788 144.10332134 -62.87068561 144.06942819 -60.60546875 144.04296875 C-59.90427917 144.01200104 -59.2030896 143.98103333 -58.48065186 143.9491272 C-56.47949219 143.94775391 -56.47949219 143.94775391 -52.99609375 144.62890625 C-50.62084961 147.56713867 -50.62084961 147.56713867 -48.99609375 150.62890625 C-40.59728422 158.86423531 -29.08170451 159.51219153 -17.94921875 159.65185547 C-9.45463546 159.55204412 -0.17322506 156.89234193 5.89453125 150.69921875 C12.83355428 141.77280563 13.15516193 132.70244348 13.56640625 121.75390625 C13.63118164 120.14902344 13.63118164 120.14902344 13.69726562 118.51171875 C13.80283442 115.88422871 13.90494416 113.25665203 14.00390625 110.62890625 C13.34390625 110.62890625 12.68390625 110.62890625 12.00390625 110.62890625 C11.76414062 111.35207031 11.524375 112.07523437 11.27734375 112.8203125 C6.98585384 122.28528564 -2.67237778 128.01626438 -11.99609375 131.62890625 C-26.04404242 136.66243554 -42.14061629 136.19347359 -55.89453125 130.41015625 C-70.35499747 123.11916488 -80.57453582 110.78675681 -85.99609375 95.62890625 C-93.61313268 71.36675375 -93.350588 42.82930685 -81.80859375 19.87890625 C-78.28707666 13.68797363 -74.05578895 8.61606101 -68.99609375 3.62890625 C-68.13371094 2.75105469 -68.13371094 2.75105469 -67.25390625 1.85546875 C-48.86991199 -15.47298517 -19.56520869 -13.43911595 0 0 Z M-44.94140625 27.37890625 C-54.39185648 37.19755584 -57.07567149 50.59200204 -57.02734375 63.83984375 C-56.68108487 77.51322221 -53.84875293 90.02378095 -44.40625 100.37109375 C-37.1787772 107.20743273 -28.814774 109.31351918 -19.04150391 109.23779297 C-10.3057354 108.81019683 -3.07426175 105.23021238 2.94140625 98.87890625 C12.62477349 86.52670853 14.92749674 71.9365634 14.00390625 56.62890625 C12.39732626 44.3344848 8.49958268 32.76142109 -0.87890625 24.25 C-14.80183149 13.58945761 -32.49240073 16.17980089 -44.94140625 27.37890625 Z " fill="#000000" transform="translate(1017.99609375,166.37109375)"/>
<path d="M0 0 C36.96 0 73.92 0 112 0 C112 25.23967363 112 25.23967363 105.875 31.75 C104.92971436 32.88755737 104.92971436 32.88755737 103.96533203 34.0480957 C102.65874432 35.61843559 101.33164069 37.17193691 99.984375 38.70751953 C96.7826997 42.40630534 93.84923938 46.30557608 90.875 50.1875 C89.70446018 51.6859398 88.53260074 53.18334975 87.359375 54.6796875 C83.7350539 59.32270318 80.20083132 64.02965217 76.67919922 68.75073242 C72.48972855 74.36219684 68.24965356 79.93401112 64 85.5 C57.28500545 94.29757894 50.6246083 103.13423069 44 112 C43.01 113.32 42.02 114.64 41 116 C64.76 116.33 88.52 116.66 113 117 C113 125.58 113 134.16 113 143 C75.38 143 37.76 143 -1 143 C-1 120.23322386 -1 120.23322386 6.17773438 111.90942383 C6.68626953 111.40950928 7.19480469 110.90959473 7.71875 110.39453125 C10.73411436 107.32084431 13.29663746 104.13820853 15.875 100.6875 C16.68839814 99.62109241 17.5035551 98.55602444 18.3203125 97.4921875 C18.74602539 96.9362793 19.17173828 96.38037109 19.61035156 95.80761719 C22.30868134 92.29770263 25.03044309 88.80597536 27.75 85.3125 C28.33990723 84.55453125 28.92981445 83.7965625 29.53759766 83.015625 C31.9686253 79.89255299 34.40034787 76.77002238 36.83203125 73.64746094 C44.25040218 64.12033467 51.64956913 54.5796599 59 45 C60.79100921 42.66616103 62.5828233 40.33294251 64.375 38 C65.16648437 36.96875 65.95796875 35.9375 66.7734375 34.875 C68.82245058 32.22925679 70.90951874 29.61310157 73 27 C48.91 26.67 24.82 26.34 0 26 C0 17.42 0 8.84 0 0 Z " fill="#000000" transform="translate(502,159)"/>
</svg>

